<mxfile host="app.diagrams.net" modified="2023-08-18T12:02:07.790Z" agent="Mozilla/5.0 (Windows NT 10.0; Win64; x64) AppleWebKit/537.36 (KHTML, like Gecko) Chrome/115.0.0.0 Safari/537.36 OPR/101.0.0.0 (Edition Campaign 34)" etag="eWwUjZUzOLLx8xMWujMo" version="21.6.8" type="github" pages="2">
  <diagram name="PÃ¡gina-1" id="UniXKZfevil1NkPD2PXe">
    <mxGraphModel dx="1426" dy="777" grid="1" gridSize="10" guides="1" tooltips="1" connect="1" arrows="1" fold="1" page="1" pageScale="1" pageWidth="827" pageHeight="1169" math="0" shadow="0">
      <root>
        <mxCell id="0" />
        <mxCell id="1" parent="0" />
        <mxCell id="vPq-FE29DWAMQZ7ES_IQ-1" style="edgeStyle=orthogonalEdgeStyle;rounded=0;orthogonalLoop=1;jettySize=auto;html=1;exitX=0.5;exitY=1;exitDx=0;exitDy=0;entryX=0.5;entryY=0;entryDx=0;entryDy=0;" parent="1" source="vPq-FE29DWAMQZ7ES_IQ-2" edge="1">
          <mxGeometry relative="1" as="geometry">
            <mxPoint x="260" y="150" as="targetPoint" />
          </mxGeometry>
        </mxCell>
        <mxCell id="vPq-FE29DWAMQZ7ES_IQ-2" value="Start ESP&lt;br&gt;Configure Variables&lt;br&gt;Configure RTC" style="rounded=1;whiteSpace=wrap;html=1;fontSize=12;glass=0;strokeWidth=1;shadow=0;" parent="1" vertex="1">
          <mxGeometry x="200" y="50" width="120" height="50" as="geometry" />
        </mxCell>
        <mxCell id="vPq-FE29DWAMQZ7ES_IQ-3" value="No" style="edgeStyle=orthogonalEdgeStyle;rounded=0;orthogonalLoop=1;jettySize=auto;html=1;exitX=0;exitY=0.5;exitDx=0;exitDy=0;entryX=1;entryY=0.5;entryDx=0;entryDy=0;" parent="1" source="vPq-FE29DWAMQZ7ES_IQ-5" target="vPq-FE29DWAMQZ7ES_IQ-18" edge="1">
          <mxGeometry x="-0.2105" relative="1" as="geometry">
            <mxPoint as="offset" />
          </mxGeometry>
        </mxCell>
        <mxCell id="vPq-FE29DWAMQZ7ES_IQ-4" value="Yes" style="edgeStyle=orthogonalEdgeStyle;rounded=0;orthogonalLoop=1;jettySize=auto;html=1;exitX=1;exitY=0.5;exitDx=0;exitDy=0;entryX=0.5;entryY=0;entryDx=0;entryDy=0;" parent="1" source="vPq-FE29DWAMQZ7ES_IQ-5" target="vPq-FE29DWAMQZ7ES_IQ-16" edge="1">
          <mxGeometry x="-0.3998" relative="1" as="geometry">
            <mxPoint as="offset" />
          </mxGeometry>
        </mxCell>
        <mxCell id="vPq-FE29DWAMQZ7ES_IQ-5" value="RTC_time_off&amp;nbsp; &amp;gt;= 1h" style="rhombus;whiteSpace=wrap;html=1;shadow=0;fontFamily=Helvetica;fontSize=12;align=center;strokeWidth=1;spacing=6;spacingTop=-4;" parent="1" vertex="1">
          <mxGeometry x="165" y="320" width="190" height="80" as="geometry" />
        </mxCell>
        <mxCell id="vPq-FE29DWAMQZ7ES_IQ-6" style="edgeStyle=orthogonalEdgeStyle;rounded=0;orthogonalLoop=1;jettySize=auto;html=1;exitX=0.5;exitY=1;exitDx=0;exitDy=0;entryX=0.5;entryY=0;entryDx=0;entryDy=0;" parent="1" source="vPq-FE29DWAMQZ7ES_IQ-7" target="vPq-FE29DWAMQZ7ES_IQ-5" edge="1">
          <mxGeometry relative="1" as="geometry" />
        </mxCell>
        <mxCell id="vPq-FE29DWAMQZ7ES_IQ-7" value="Enable Interruption button 1 to turn on the system" style="rounded=1;whiteSpace=wrap;html=1;fontSize=12;glass=0;strokeWidth=1;shadow=0;" parent="1" vertex="1">
          <mxGeometry x="320" y="230" width="120" height="50" as="geometry" />
        </mxCell>
        <mxCell id="vPq-FE29DWAMQZ7ES_IQ-8" style="edgeStyle=orthogonalEdgeStyle;rounded=0;orthogonalLoop=1;jettySize=auto;html=1;entryX=0.5;entryY=1;entryDx=0;entryDy=0;" parent="1" source="vPq-FE29DWAMQZ7ES_IQ-9" target="vPq-FE29DWAMQZ7ES_IQ-14" edge="1">
          <mxGeometry relative="1" as="geometry">
            <Array as="points">
              <mxPoint x="67" y="584" />
              <mxPoint x="260" y="584" />
            </Array>
          </mxGeometry>
        </mxCell>
        <mxCell id="vPq-FE29DWAMQZ7ES_IQ-9" value="Sleep&lt;br style=&quot;font-size: 11px;&quot;&gt;update(RTC_time_on)" style="rounded=1;whiteSpace=wrap;html=1;fontSize=11;glass=0;strokeWidth=1;shadow=0;" parent="1" vertex="1">
          <mxGeometry x="7" y="504" width="120" height="40" as="geometry" />
        </mxCell>
        <mxCell id="vPq-FE29DWAMQZ7ES_IQ-10" value="&lt;h1 style=&quot;font-size: 11px;&quot;&gt;&lt;span style=&quot;background-color: initial; font-size: 11px;&quot;&gt;&lt;font style=&quot;font-size: 11px;&quot;&gt;Aeration System&lt;/font&gt;&lt;/span&gt;&lt;/h1&gt;&lt;h1 style=&quot;font-size: 11px;&quot;&gt;&lt;span style=&quot;background-color: initial; font-weight: normal; font-size: 11px;&quot;&gt;Will be turned on by the user pressing a button or after a period of 1h&amp;nbsp;and will aerate the water for 30 minutes. Critical time of 15 minutes the motor needs to cool down&lt;/span&gt;&lt;br style=&quot;font-size: 11px;&quot;&gt;&lt;/h1&gt;" style="text;html=1;strokeColor=none;fillColor=none;spacing=5;spacingTop=-20;whiteSpace=wrap;overflow=hidden;rounded=0;fontSize=11;" parent="1" vertex="1">
          <mxGeometry x="40" y="610" width="310" height="150" as="geometry" />
        </mxCell>
        <mxCell id="vPq-FE29DWAMQZ7ES_IQ-11" style="edgeStyle=orthogonalEdgeStyle;rounded=0;orthogonalLoop=1;jettySize=auto;html=1;entryX=0.5;entryY=1;entryDx=0;entryDy=0;" parent="1" source="vPq-FE29DWAMQZ7ES_IQ-14" target="vPq-FE29DWAMQZ7ES_IQ-20" edge="1">
          <mxGeometry relative="1" as="geometry" />
        </mxCell>
        <mxCell id="vPq-FE29DWAMQZ7ES_IQ-12" value="Yes" style="edgeLabel;html=1;align=center;verticalAlign=middle;resizable=0;points=[];" parent="vPq-FE29DWAMQZ7ES_IQ-11" vertex="1" connectable="0">
          <mxGeometry x="-0.5444" y="1" relative="1" as="geometry">
            <mxPoint as="offset" />
          </mxGeometry>
        </mxCell>
        <mxCell id="vPq-FE29DWAMQZ7ES_IQ-13" value="No" style="edgeStyle=orthogonalEdgeStyle;rounded=0;orthogonalLoop=1;jettySize=auto;html=1;exitX=0;exitY=0.5;exitDx=0;exitDy=0;entryX=1;entryY=0.5;entryDx=0;entryDy=0;" parent="1" source="vPq-FE29DWAMQZ7ES_IQ-14" target="vPq-FE29DWAMQZ7ES_IQ-9" edge="1">
          <mxGeometry x="-0.2105" relative="1" as="geometry">
            <mxPoint as="offset" />
          </mxGeometry>
        </mxCell>
        <mxCell id="vPq-FE29DWAMQZ7ES_IQ-14" value="RTC_time_on &amp;lt;=&amp;nbsp;&amp;nbsp;30mim" style="rhombus;whiteSpace=wrap;html=1;shadow=0;fontFamily=Helvetica;fontSize=12;align=center;strokeWidth=1;spacing=6;spacingTop=-4;" parent="1" vertex="1">
          <mxGeometry x="165" y="484" width="190" height="80" as="geometry" />
        </mxCell>
        <mxCell id="vPq-FE29DWAMQZ7ES_IQ-15" style="edgeStyle=orthogonalEdgeStyle;rounded=0;orthogonalLoop=1;jettySize=auto;html=1;entryX=0.5;entryY=0;entryDx=0;entryDy=0;" parent="1" source="vPq-FE29DWAMQZ7ES_IQ-16" target="vPq-FE29DWAMQZ7ES_IQ-14" edge="1">
          <mxGeometry relative="1" as="geometry" />
        </mxCell>
        <mxCell id="vPq-FE29DWAMQZ7ES_IQ-16" value="Turn on Motor&lt;br&gt;RTC_time_on = 0min" style="rounded=1;whiteSpace=wrap;html=1;fontSize=12;glass=0;strokeWidth=1;shadow=0;" parent="1" vertex="1">
          <mxGeometry x="320" y="400" width="120" height="30" as="geometry" />
        </mxCell>
        <mxCell id="vPq-FE29DWAMQZ7ES_IQ-17" style="edgeStyle=orthogonalEdgeStyle;rounded=0;orthogonalLoop=1;jettySize=auto;html=1;entryX=0.5;entryY=1;entryDx=0;entryDy=0;" parent="1" source="vPq-FE29DWAMQZ7ES_IQ-18" target="vPq-FE29DWAMQZ7ES_IQ-5" edge="1">
          <mxGeometry relative="1" as="geometry">
            <Array as="points">
              <mxPoint x="70" y="420" />
              <mxPoint x="260" y="420" />
            </Array>
          </mxGeometry>
        </mxCell>
        <mxCell id="vPq-FE29DWAMQZ7ES_IQ-18" value="Sleep&lt;br style=&quot;font-size: 11px;&quot;&gt;update(RTC_time_off)" style="rounded=1;whiteSpace=wrap;html=1;fontSize=11;glass=0;strokeWidth=1;shadow=0;" parent="1" vertex="1">
          <mxGeometry x="7" y="340" width="120" height="40" as="geometry" />
        </mxCell>
        <mxCell id="vPq-FE29DWAMQZ7ES_IQ-19" style="edgeStyle=orthogonalEdgeStyle;rounded=0;orthogonalLoop=1;jettySize=auto;html=1;exitX=0.5;exitY=0;exitDx=0;exitDy=0;" parent="1" source="vPq-FE29DWAMQZ7ES_IQ-20" edge="1">
          <mxGeometry relative="1" as="geometry">
            <mxPoint x="260" y="130" as="targetPoint" />
            <Array as="points">
              <mxPoint x="520" y="130" />
            </Array>
          </mxGeometry>
        </mxCell>
        <mxCell id="vPq-FE29DWAMQZ7ES_IQ-20" value="Turn off Motor&lt;br&gt;Disable Interruption button 1 to turn on the system&lt;br&gt;RTC_time_on =&amp;nbsp; 0min&lt;br&gt;RTC_time_off = 0min" style="rounded=1;whiteSpace=wrap;html=1;fontSize=12;glass=0;strokeWidth=1;shadow=0;" parent="1" vertex="1">
          <mxGeometry x="440" y="290" width="160" height="110" as="geometry" />
        </mxCell>
        <mxCell id="vPq-FE29DWAMQZ7ES_IQ-21" style="edgeStyle=orthogonalEdgeStyle;rounded=0;orthogonalLoop=1;jettySize=auto;html=1;entryX=0.5;entryY=1;entryDx=0;entryDy=0;" parent="1" source="vPq-FE29DWAMQZ7ES_IQ-22" edge="1">
          <mxGeometry relative="1" as="geometry">
            <mxPoint x="260" y="230" as="targetPoint" />
            <Array as="points">
              <mxPoint x="67" y="250" />
              <mxPoint x="260" y="250" />
            </Array>
          </mxGeometry>
        </mxCell>
        <mxCell id="vPq-FE29DWAMQZ7ES_IQ-22" value="Sleep&lt;br style=&quot;font-size: 11px;&quot;&gt;update(RTC_time_off)" style="rounded=1;whiteSpace=wrap;html=1;fontSize=11;glass=0;strokeWidth=1;shadow=0;" parent="1" vertex="1">
          <mxGeometry x="7" y="170" width="120" height="40" as="geometry" />
        </mxCell>
        <mxCell id="vPq-FE29DWAMQZ7ES_IQ-23" style="edgeStyle=orthogonalEdgeStyle;rounded=0;orthogonalLoop=1;jettySize=auto;html=1;exitX=0.5;exitY=1;exitDx=0;exitDy=0;entryX=0.5;entryY=0;entryDx=0;entryDy=0;" parent="1" source="vPq-FE29DWAMQZ7ES_IQ-24" target="vPq-FE29DWAMQZ7ES_IQ-29" edge="1">
          <mxGeometry relative="1" as="geometry" />
        </mxCell>
        <mxCell id="vPq-FE29DWAMQZ7ES_IQ-24" value="Interrup 1&lt;br&gt;Button 1 Pressed" style="rounded=0;whiteSpace=wrap;html=1;" parent="1" vertex="1">
          <mxGeometry x="610" y="130" width="120" height="60" as="geometry" />
        </mxCell>
        <mxCell id="vPq-FE29DWAMQZ7ES_IQ-25" style="edgeStyle=orthogonalEdgeStyle;rounded=0;orthogonalLoop=1;jettySize=auto;html=1;entryX=0.5;entryY=0;entryDx=0;entryDy=0;" parent="1" source="vPq-FE29DWAMQZ7ES_IQ-26" target="vPq-FE29DWAMQZ7ES_IQ-30" edge="1">
          <mxGeometry relative="1" as="geometry" />
        </mxCell>
        <mxCell id="vPq-FE29DWAMQZ7ES_IQ-26" value="RTC_time_off = 1h" style="rounded=1;whiteSpace=wrap;html=1;" parent="1" vertex="1">
          <mxGeometry x="610" y="350" width="120" height="60" as="geometry" />
        </mxCell>
        <mxCell id="vPq-FE29DWAMQZ7ES_IQ-27" value="Yes" style="edgeStyle=orthogonalEdgeStyle;rounded=0;orthogonalLoop=1;jettySize=auto;html=1;exitX=0.5;exitY=1;exitDx=0;exitDy=0;entryX=0.5;entryY=0;entryDx=0;entryDy=0;" parent="1" source="vPq-FE29DWAMQZ7ES_IQ-29" target="vPq-FE29DWAMQZ7ES_IQ-26" edge="1">
          <mxGeometry relative="1" as="geometry" />
        </mxCell>
        <mxCell id="vPq-FE29DWAMQZ7ES_IQ-28" value="No" style="edgeStyle=orthogonalEdgeStyle;rounded=0;orthogonalLoop=1;jettySize=auto;html=1;exitX=1;exitY=0.5;exitDx=0;exitDy=0;entryX=1;entryY=0.5;entryDx=0;entryDy=0;" parent="1" source="vPq-FE29DWAMQZ7ES_IQ-29" target="vPq-FE29DWAMQZ7ES_IQ-30" edge="1">
          <mxGeometry relative="1" as="geometry" />
        </mxCell>
        <mxCell id="vPq-FE29DWAMQZ7ES_IQ-29" value="Enable Interruption button?" style="rhombus;whiteSpace=wrap;html=1;" parent="1" vertex="1">
          <mxGeometry x="620" y="230" width="100" height="80" as="geometry" />
        </mxCell>
        <mxCell id="vPq-FE29DWAMQZ7ES_IQ-30" value="End Interruption" style="rounded=0;whiteSpace=wrap;html=1;" parent="1" vertex="1">
          <mxGeometry x="610" y="455" width="120" height="60" as="geometry" />
        </mxCell>
        <mxCell id="vPq-FE29DWAMQZ7ES_IQ-31" style="edgeStyle=orthogonalEdgeStyle;rounded=0;orthogonalLoop=1;jettySize=auto;html=1;exitX=0.5;exitY=1;exitDx=0;exitDy=0;entryX=0.5;entryY=0;entryDx=0;entryDy=0;" parent="1" source="vPq-FE29DWAMQZ7ES_IQ-32" target="vPq-FE29DWAMQZ7ES_IQ-34" edge="1">
          <mxGeometry relative="1" as="geometry" />
        </mxCell>
        <mxCell id="vPq-FE29DWAMQZ7ES_IQ-32" value="Interrup 2&lt;br&gt;Button 2 Pressed" style="rounded=0;whiteSpace=wrap;html=1;" parent="1" vertex="1">
          <mxGeometry x="780" y="130" width="120" height="60" as="geometry" />
        </mxCell>
        <mxCell id="vPq-FE29DWAMQZ7ES_IQ-33" style="edgeStyle=orthogonalEdgeStyle;rounded=0;orthogonalLoop=1;jettySize=auto;html=1;entryX=0.5;entryY=0;entryDx=0;entryDy=0;" parent="1" source="vPq-FE29DWAMQZ7ES_IQ-34" target="vPq-FE29DWAMQZ7ES_IQ-35" edge="1">
          <mxGeometry relative="1" as="geometry" />
        </mxCell>
        <mxCell id="vPq-FE29DWAMQZ7ES_IQ-34" value="RTC_time_on = 30min" style="rounded=1;whiteSpace=wrap;html=1;" parent="1" vertex="1">
          <mxGeometry x="780" y="230" width="120" height="60" as="geometry" />
        </mxCell>
        <mxCell id="vPq-FE29DWAMQZ7ES_IQ-35" value="End Interruption" style="rounded=0;whiteSpace=wrap;html=1;" parent="1" vertex="1">
          <mxGeometry x="780" y="335" width="120" height="60" as="geometry" />
        </mxCell>
        <mxCell id="vPq-FE29DWAMQZ7ES_IQ-36" value="No" style="edgeStyle=orthogonalEdgeStyle;rounded=0;orthogonalLoop=1;jettySize=auto;html=1;exitX=0;exitY=0.5;exitDx=0;exitDy=0;entryX=1;entryY=0.5;entryDx=0;entryDy=0;" parent="1" source="vPq-FE29DWAMQZ7ES_IQ-38" target="vPq-FE29DWAMQZ7ES_IQ-22" edge="1">
          <mxGeometry relative="1" as="geometry" />
        </mxCell>
        <mxCell id="vPq-FE29DWAMQZ7ES_IQ-37" value="Yes" style="edgeStyle=orthogonalEdgeStyle;rounded=0;orthogonalLoop=1;jettySize=auto;html=1;exitX=1;exitY=0.5;exitDx=0;exitDy=0;entryX=0.5;entryY=0;entryDx=0;entryDy=0;" parent="1" source="vPq-FE29DWAMQZ7ES_IQ-38" target="vPq-FE29DWAMQZ7ES_IQ-7" edge="1">
          <mxGeometry x="-0.1429" relative="1" as="geometry">
            <mxPoint as="offset" />
          </mxGeometry>
        </mxCell>
        <mxCell id="vPq-FE29DWAMQZ7ES_IQ-38" value="RTC_time_off &amp;gt;= 15min" style="rhombus;whiteSpace=wrap;html=1;" parent="1" vertex="1">
          <mxGeometry x="170" y="150" width="180" height="80" as="geometry" />
        </mxCell>
      </root>
    </mxGraphModel>
  </diagram>
  <diagram id="kvFr8HoxuqdFDJMHDUPC" name="PÃ¡gina-2">
    <mxGraphModel dx="2037" dy="1110" grid="1" gridSize="10" guides="1" tooltips="1" connect="1" arrows="1" fold="1" page="1" pageScale="1" pageWidth="827" pageHeight="1169" math="0" shadow="0">
      <root>
        <mxCell id="0" />
        <mxCell id="1" parent="0" />
        <mxCell id="X-SFLX-BUOwK57dnL_UR-1" style="edgeStyle=orthogonalEdgeStyle;rounded=0;orthogonalLoop=1;jettySize=auto;html=1;exitX=0.5;exitY=1;exitDx=0;exitDy=0;entryX=0.5;entryY=0;entryDx=0;entryDy=0;fontFamily=Times New Roman;fontSize=11;" edge="1" parent="1" source="X-SFLX-BUOwK57dnL_UR-2">
          <mxGeometry relative="1" as="geometry">
            <mxPoint x="260" y="150" as="targetPoint" />
          </mxGeometry>
        </mxCell>
        <mxCell id="X-SFLX-BUOwK57dnL_UR-2" value="&lt;font style=&quot;font-size: 11px;&quot;&gt;Inicia ESP&lt;br style=&quot;font-size: 11px;&quot;&gt;Configura as VariÃ¡veis &lt;br style=&quot;font-size: 11px;&quot;&gt;Configura RTC&lt;/font&gt;" style="rounded=1;whiteSpace=wrap;html=1;fontSize=11;glass=0;strokeWidth=1;shadow=0;fontFamily=Times New Roman;" vertex="1" parent="1">
          <mxGeometry x="195" y="50" width="130" height="50" as="geometry" />
        </mxCell>
        <mxCell id="X-SFLX-BUOwK57dnL_UR-3" value="No" style="edgeStyle=orthogonalEdgeStyle;rounded=0;orthogonalLoop=1;jettySize=auto;html=1;exitX=0;exitY=0.5;exitDx=0;exitDy=0;entryX=1;entryY=0.5;entryDx=0;entryDy=0;fontFamily=Times New Roman;fontSize=11;" edge="1" parent="1" source="X-SFLX-BUOwK57dnL_UR-5" target="X-SFLX-BUOwK57dnL_UR-18">
          <mxGeometry x="-0.2105" relative="1" as="geometry">
            <mxPoint as="offset" />
          </mxGeometry>
        </mxCell>
        <mxCell id="X-SFLX-BUOwK57dnL_UR-4" value="Yes" style="edgeStyle=orthogonalEdgeStyle;rounded=0;orthogonalLoop=1;jettySize=auto;html=1;exitX=1;exitY=0.5;exitDx=0;exitDy=0;entryX=0.5;entryY=0;entryDx=0;entryDy=0;fontFamily=Times New Roman;fontSize=11;" edge="1" parent="1" source="X-SFLX-BUOwK57dnL_UR-5" target="X-SFLX-BUOwK57dnL_UR-16">
          <mxGeometry x="-0.3998" relative="1" as="geometry">
            <mxPoint as="offset" />
          </mxGeometry>
        </mxCell>
        <mxCell id="X-SFLX-BUOwK57dnL_UR-5" value="RTC_time_off&amp;nbsp; &amp;gt;= 30min" style="rhombus;whiteSpace=wrap;html=1;shadow=0;fontFamily=Times New Roman;fontSize=11;align=center;strokeWidth=1;spacing=6;spacingTop=-4;" vertex="1" parent="1">
          <mxGeometry x="165" y="320" width="190" height="80" as="geometry" />
        </mxCell>
        <mxCell id="X-SFLX-BUOwK57dnL_UR-6" style="edgeStyle=orthogonalEdgeStyle;rounded=0;orthogonalLoop=1;jettySize=auto;html=1;exitX=0.5;exitY=1;exitDx=0;exitDy=0;entryX=0.5;entryY=0;entryDx=0;entryDy=0;fontFamily=Times New Roman;fontSize=11;" edge="1" parent="1" source="X-SFLX-BUOwK57dnL_UR-7" target="X-SFLX-BUOwK57dnL_UR-5">
          <mxGeometry relative="1" as="geometry" />
        </mxCell>
        <mxCell id="X-SFLX-BUOwK57dnL_UR-7" value="Habilita InterrupÃ§Ã£o do botÃ£o 1" style="rounded=1;whiteSpace=wrap;html=1;fontSize=11;glass=0;strokeWidth=1;shadow=0;fontFamily=Times New Roman;" vertex="1" parent="1">
          <mxGeometry x="320" y="230" width="120" height="50" as="geometry" />
        </mxCell>
        <mxCell id="X-SFLX-BUOwK57dnL_UR-8" style="edgeStyle=orthogonalEdgeStyle;rounded=0;orthogonalLoop=1;jettySize=auto;html=1;entryX=0.5;entryY=1;entryDx=0;entryDy=0;fontFamily=Times New Roman;fontSize=11;" edge="1" parent="1" source="X-SFLX-BUOwK57dnL_UR-9" target="X-SFLX-BUOwK57dnL_UR-14">
          <mxGeometry relative="1" as="geometry">
            <Array as="points">
              <mxPoint x="67" y="620" />
              <mxPoint x="260" y="620" />
            </Array>
          </mxGeometry>
        </mxCell>
        <mxCell id="X-SFLX-BUOwK57dnL_UR-9" value="Dorme ESP&lt;br style=&quot;border-color: var(--border-color); font-size: 11px;&quot;&gt;update(RTC_time_on)" style="rounded=1;whiteSpace=wrap;html=1;fontSize=11;glass=0;strokeWidth=1;shadow=0;fontFamily=Times New Roman;" vertex="1" parent="1">
          <mxGeometry x="7" y="540" width="120" height="40" as="geometry" />
        </mxCell>
        <mxCell id="X-SFLX-BUOwK57dnL_UR-11" style="edgeStyle=orthogonalEdgeStyle;rounded=0;orthogonalLoop=1;jettySize=auto;html=1;entryX=0.5;entryY=1;entryDx=0;entryDy=0;fontFamily=Times New Roman;fontSize=11;" edge="1" parent="1" source="X-SFLX-BUOwK57dnL_UR-14" target="X-SFLX-BUOwK57dnL_UR-20">
          <mxGeometry relative="1" as="geometry" />
        </mxCell>
        <mxCell id="X-SFLX-BUOwK57dnL_UR-12" value="Yes" style="edgeLabel;html=1;align=center;verticalAlign=middle;resizable=0;points=[];fontFamily=Times New Roman;fontSize=11;" vertex="1" connectable="0" parent="X-SFLX-BUOwK57dnL_UR-11">
          <mxGeometry x="-0.5444" y="1" relative="1" as="geometry">
            <mxPoint as="offset" />
          </mxGeometry>
        </mxCell>
        <mxCell id="X-SFLX-BUOwK57dnL_UR-13" value="No" style="edgeStyle=orthogonalEdgeStyle;rounded=0;orthogonalLoop=1;jettySize=auto;html=1;exitX=0;exitY=0.5;exitDx=0;exitDy=0;entryX=1;entryY=0.5;entryDx=0;entryDy=0;fontFamily=Times New Roman;fontSize=11;" edge="1" parent="1" source="X-SFLX-BUOwK57dnL_UR-14" target="X-SFLX-BUOwK57dnL_UR-9">
          <mxGeometry x="-0.2105" relative="1" as="geometry">
            <mxPoint as="offset" />
          </mxGeometry>
        </mxCell>
        <mxCell id="X-SFLX-BUOwK57dnL_UR-14" value="RTC_time_on &amp;lt;=&amp;nbsp;&amp;nbsp;30mim" style="rhombus;whiteSpace=wrap;html=1;shadow=0;fontFamily=Times New Roman;fontSize=11;align=center;strokeWidth=1;spacing=6;spacingTop=-4;" vertex="1" parent="1">
          <mxGeometry x="165" y="520" width="190" height="80" as="geometry" />
        </mxCell>
        <mxCell id="X-SFLX-BUOwK57dnL_UR-15" style="edgeStyle=orthogonalEdgeStyle;rounded=0;orthogonalLoop=1;jettySize=auto;html=1;entryX=0.5;entryY=0;entryDx=0;entryDy=0;fontFamily=Times New Roman;fontSize=11;" edge="1" parent="1" source="X-SFLX-BUOwK57dnL_UR-16" target="X-SFLX-BUOwK57dnL_UR-14">
          <mxGeometry relative="1" as="geometry" />
        </mxCell>
        <mxCell id="X-SFLX-BUOwK57dnL_UR-16" value="&lt;font style=&quot;font-size: 11px;&quot;&gt;Liga Aerador&lt;br style=&quot;font-size: 11px;&quot;&gt;Desabilita InterrupÃ§Ã£o do botÃ£o 1&lt;br style=&quot;font-size: 11px;&quot;&gt;Habilita InterrupÃ§Ã£o do botÃ£o 2&lt;br style=&quot;font-size: 11px;&quot;&gt;RTC_time_on = 0min&lt;/font&gt;" style="rounded=1;whiteSpace=wrap;html=1;fontSize=11;glass=0;strokeWidth=1;shadow=0;fontFamily=Times New Roman;" vertex="1" parent="1">
          <mxGeometry x="310" y="380" width="160" height="100" as="geometry" />
        </mxCell>
        <mxCell id="X-SFLX-BUOwK57dnL_UR-17" style="edgeStyle=orthogonalEdgeStyle;rounded=0;orthogonalLoop=1;jettySize=auto;html=1;entryX=0.5;entryY=1;entryDx=0;entryDy=0;fontFamily=Times New Roman;fontSize=11;" edge="1" parent="1" source="X-SFLX-BUOwK57dnL_UR-18" target="X-SFLX-BUOwK57dnL_UR-5">
          <mxGeometry relative="1" as="geometry">
            <Array as="points">
              <mxPoint x="70" y="420" />
              <mxPoint x="260" y="420" />
            </Array>
          </mxGeometry>
        </mxCell>
        <mxCell id="X-SFLX-BUOwK57dnL_UR-18" value="Dorme ESP&lt;br style=&quot;border-color: var(--border-color); font-size: 11px;&quot;&gt;update(RTC_time_off)" style="rounded=1;whiteSpace=wrap;html=1;fontSize=11;glass=0;strokeWidth=1;shadow=0;fontFamily=Times New Roman;" vertex="1" parent="1">
          <mxGeometry x="7" y="340" width="120" height="40" as="geometry" />
        </mxCell>
        <mxCell id="X-SFLX-BUOwK57dnL_UR-19" style="edgeStyle=orthogonalEdgeStyle;rounded=0;orthogonalLoop=1;jettySize=auto;html=1;exitX=0.5;exitY=0;exitDx=0;exitDy=0;fontFamily=Times New Roman;fontSize=11;" edge="1" parent="1" source="X-SFLX-BUOwK57dnL_UR-20">
          <mxGeometry relative="1" as="geometry">
            <mxPoint x="260" y="140" as="targetPoint" />
            <Array as="points">
              <mxPoint x="555" y="140" />
            </Array>
            <mxPoint x="545" y="300" as="sourcePoint" />
          </mxGeometry>
        </mxCell>
        <mxCell id="X-SFLX-BUOwK57dnL_UR-20" value="Desliga Aerador&lt;br style=&quot;font-size: 11px;&quot;&gt;Desabilita InterrupÃ§Ã£o do botÃ£o 2&lt;br style=&quot;font-size: 11px;&quot;&gt;RTC_time_on =&amp;nbsp; 0min&lt;br style=&quot;font-size: 11px;&quot;&gt;RTC_time_off = 0min" style="rounded=1;whiteSpace=wrap;html=1;fontSize=11;glass=0;strokeWidth=1;shadow=0;fontFamily=Times New Roman;" vertex="1" parent="1">
          <mxGeometry x="480" y="290" width="150" height="110" as="geometry" />
        </mxCell>
        <mxCell id="X-SFLX-BUOwK57dnL_UR-21" style="edgeStyle=orthogonalEdgeStyle;rounded=0;orthogonalLoop=1;jettySize=auto;html=1;entryX=0.5;entryY=1;entryDx=0;entryDy=0;fontFamily=Times New Roman;fontSize=11;" edge="1" parent="1" source="X-SFLX-BUOwK57dnL_UR-22">
          <mxGeometry relative="1" as="geometry">
            <mxPoint x="260" y="230" as="targetPoint" />
            <Array as="points">
              <mxPoint x="67" y="250" />
              <mxPoint x="260" y="250" />
            </Array>
          </mxGeometry>
        </mxCell>
        <mxCell id="X-SFLX-BUOwK57dnL_UR-22" value="Dorme ESP&lt;br style=&quot;font-size: 11px;&quot;&gt;update(RTC_time_off)" style="rounded=1;whiteSpace=wrap;html=1;fontSize=11;glass=0;strokeWidth=1;shadow=0;fontFamily=Times New Roman;" vertex="1" parent="1">
          <mxGeometry x="7" y="170" width="120" height="40" as="geometry" />
        </mxCell>
        <mxCell id="X-SFLX-BUOwK57dnL_UR-23" style="edgeStyle=orthogonalEdgeStyle;rounded=0;orthogonalLoop=1;jettySize=auto;html=1;exitX=0.5;exitY=1;exitDx=0;exitDy=0;entryX=0.5;entryY=0;entryDx=0;entryDy=0;fontFamily=Times New Roman;fontSize=11;" edge="1" parent="1" source="X-SFLX-BUOwK57dnL_UR-24" target="X-SFLX-BUOwK57dnL_UR-26">
          <mxGeometry relative="1" as="geometry">
            <mxPoint x="710" y="312.5" as="targetPoint" />
            <Array as="points">
              <mxPoint x="718" y="292.5" />
              <mxPoint x="718" y="292.5" />
              <mxPoint x="718" y="312.5" />
            </Array>
          </mxGeometry>
        </mxCell>
        <mxCell id="X-SFLX-BUOwK57dnL_UR-24" value="InterrupÃ§Ã£o do BotÃ£o 1" style="rounded=0;whiteSpace=wrap;html=1;fontFamily=Times New Roman;fontSize=11;" vertex="1" parent="1">
          <mxGeometry x="660" y="212.5" width="115" height="60" as="geometry" />
        </mxCell>
        <mxCell id="X-SFLX-BUOwK57dnL_UR-25" style="edgeStyle=orthogonalEdgeStyle;rounded=0;orthogonalLoop=1;jettySize=auto;html=1;entryX=0.5;entryY=0;entryDx=0;entryDy=0;fontFamily=Times New Roman;fontSize=11;" edge="1" parent="1" source="X-SFLX-BUOwK57dnL_UR-26" target="X-SFLX-BUOwK57dnL_UR-30">
          <mxGeometry relative="1" as="geometry" />
        </mxCell>
        <mxCell id="X-SFLX-BUOwK57dnL_UR-26" value="RTC_time_off = 30min" style="rounded=1;whiteSpace=wrap;html=1;fontFamily=Times New Roman;fontSize=11;" vertex="1" parent="1">
          <mxGeometry x="660" y="312.5" width="115" height="60" as="geometry" />
        </mxCell>
        <mxCell id="X-SFLX-BUOwK57dnL_UR-30" value="Final InterrupÃ§Ã£o 1" style="rounded=0;whiteSpace=wrap;html=1;fontFamily=Times New Roman;fontSize=11;" vertex="1" parent="1">
          <mxGeometry x="662.5" y="417.5" width="110" height="60" as="geometry" />
        </mxCell>
        <mxCell id="X-SFLX-BUOwK57dnL_UR-31" style="edgeStyle=orthogonalEdgeStyle;rounded=0;orthogonalLoop=1;jettySize=auto;html=1;exitX=0.5;exitY=1;exitDx=0;exitDy=0;entryX=0.5;entryY=0;entryDx=0;entryDy=0;fontFamily=Times New Roman;fontSize=11;" edge="1" parent="1" source="X-SFLX-BUOwK57dnL_UR-32" target="X-SFLX-BUOwK57dnL_UR-34">
          <mxGeometry relative="1" as="geometry">
            <Array as="points">
              <mxPoint x="865" y="272.5" />
            </Array>
          </mxGeometry>
        </mxCell>
        <mxCell id="X-SFLX-BUOwK57dnL_UR-32" value="InterrupÃ§Ã£o do BotÃ£o 2" style="rounded=0;whiteSpace=wrap;html=1;fontFamily=Times New Roman;fontSize=11;" vertex="1" parent="1">
          <mxGeometry x="807.5" y="212.5" width="115" height="60" as="geometry" />
        </mxCell>
        <mxCell id="X-SFLX-BUOwK57dnL_UR-33" style="edgeStyle=orthogonalEdgeStyle;rounded=0;orthogonalLoop=1;jettySize=auto;html=1;entryX=0.486;entryY=-0.007;entryDx=0;entryDy=0;fontFamily=Times New Roman;fontSize=11;entryPerimeter=0;" edge="1" parent="1" target="X-SFLX-BUOwK57dnL_UR-35">
          <mxGeometry relative="1" as="geometry">
            <mxPoint x="862.5" y="372.5" as="sourcePoint" />
            <mxPoint x="857.5" y="417.5" as="targetPoint" />
            <Array as="points">
              <mxPoint x="863" y="373.5" />
              <mxPoint x="863" y="395.5" />
              <mxPoint x="863" y="395.5" />
            </Array>
          </mxGeometry>
        </mxCell>
        <mxCell id="X-SFLX-BUOwK57dnL_UR-34" value="RTC_time_on = 30min" style="rounded=1;whiteSpace=wrap;html=1;fontFamily=Times New Roman;fontSize=11;" vertex="1" parent="1">
          <mxGeometry x="810" y="312.5" width="110" height="60" as="geometry" />
        </mxCell>
        <mxCell id="X-SFLX-BUOwK57dnL_UR-35" value="Final InterrupÃ§Ã£o 2" style="rounded=0;whiteSpace=wrap;html=1;fontFamily=Times New Roman;fontSize=11;" vertex="1" parent="1">
          <mxGeometry x="810" y="417.5" width="110" height="60" as="geometry" />
        </mxCell>
        <mxCell id="X-SFLX-BUOwK57dnL_UR-36" value="No" style="edgeStyle=orthogonalEdgeStyle;rounded=0;orthogonalLoop=1;jettySize=auto;html=1;exitX=0;exitY=0.5;exitDx=0;exitDy=0;entryX=1;entryY=0.5;entryDx=0;entryDy=0;fontFamily=Times New Roman;fontSize=11;" edge="1" parent="1" source="X-SFLX-BUOwK57dnL_UR-38" target="X-SFLX-BUOwK57dnL_UR-22">
          <mxGeometry relative="1" as="geometry" />
        </mxCell>
        <mxCell id="X-SFLX-BUOwK57dnL_UR-37" value="Yes" style="edgeStyle=orthogonalEdgeStyle;rounded=0;orthogonalLoop=1;jettySize=auto;html=1;exitX=1;exitY=0.5;exitDx=0;exitDy=0;entryX=0.5;entryY=0;entryDx=0;entryDy=0;fontFamily=Times New Roman;fontSize=11;" edge="1" parent="1" source="X-SFLX-BUOwK57dnL_UR-38" target="X-SFLX-BUOwK57dnL_UR-7">
          <mxGeometry x="-0.1429" relative="1" as="geometry">
            <mxPoint as="offset" />
          </mxGeometry>
        </mxCell>
        <mxCell id="X-SFLX-BUOwK57dnL_UR-38" value="RTC_time_off &amp;gt;= 15min" style="rhombus;whiteSpace=wrap;html=1;fontFamily=Times New Roman;fontSize=11;" vertex="1" parent="1">
          <mxGeometry x="170" y="150" width="180" height="80" as="geometry" />
        </mxCell>
      </root>
    </mxGraphModel>
  </diagram>
</mxfile>
